<svg width="25" height="25" viewBox="0 0 25 25" fill="none" xmlns="http://www.w3.org/2000/svg">
<g clip-path="url(#clip0_632_2576)">
<path d="M20.5504 5.42557C19.0204 4.73557 17.3804 4.22557 15.6654 3.93557C15.6501 3.93264 15.6343 3.93452 15.6202 3.94097C15.606 3.94742 15.5942 3.95812 15.5864 3.97157C15.3764 4.34057 15.1424 4.82157 14.9784 5.20157C13.1595 4.9298 11.3103 4.9298 9.49139 5.20157C9.30873 4.78043 9.10274 4.36979 8.87439 3.97157C8.86665 3.95795 8.85494 3.94702 8.84083 3.94023C8.82671 3.93344 8.81086 3.93111 8.79539 3.93357C7.08139 4.22357 5.44139 4.73357 3.91039 5.42457C3.89722 5.43009 3.88605 5.43951 3.87839 5.45157C0.766391 10.0266 -0.0866092 14.4886 0.332391 18.8946C0.333557 18.9054 0.336906 18.9158 0.342236 18.9253C0.347565 18.9347 0.354763 18.943 0.363391 18.9496C2.17978 20.272 4.20573 21.2794 6.35639 21.9296C6.37138 21.9342 6.38742 21.9342 6.4024 21.9295C6.41739 21.9249 6.43063 21.9158 6.44039 21.9036C6.90319 21.2846 7.31329 20.628 7.66639 19.9406C7.67129 19.9312 7.67412 19.9208 7.67467 19.9102C7.67523 19.8997 7.67351 19.8891 7.66962 19.8792C7.66573 19.8694 7.65977 19.8604 7.65214 19.8531C7.64451 19.8457 7.63539 19.8401 7.62539 19.8366C6.9794 19.5933 6.35348 19.2997 5.75339 18.9586C5.74261 18.9524 5.73352 18.9437 5.72695 18.9331C5.72037 18.9226 5.71652 18.9106 5.71572 18.8982C5.71493 18.8858 5.71723 18.8734 5.7224 18.8622C5.72758 18.8509 5.73548 18.841 5.74539 18.8336C5.87139 18.7406 5.99739 18.6436 6.11739 18.5466C6.12819 18.5378 6.1412 18.5323 6.15497 18.5305C6.16875 18.5288 6.18274 18.5309 6.19539 18.5366C10.1224 20.3006 14.3754 20.3006 18.2564 18.5366C18.2691 18.5305 18.2832 18.5281 18.2972 18.5297C18.3111 18.5313 18.3244 18.5368 18.3354 18.5456C18.4554 18.6436 18.5804 18.7406 18.7074 18.8336C18.7174 18.8409 18.7254 18.8506 18.7308 18.8618C18.7361 18.873 18.7386 18.8853 18.738 18.8977C18.7374 18.9101 18.7338 18.9221 18.7274 18.9327C18.721 18.9434 18.7121 18.9522 18.7014 18.9586C18.1034 19.3026 17.4814 19.5936 16.8284 19.8356C16.8184 19.8392 16.8092 19.8449 16.8016 19.8524C16.794 19.8599 16.788 19.8688 16.7841 19.8788C16.7802 19.8887 16.7785 19.8994 16.7791 19.91C16.7797 19.9207 16.7825 19.9311 16.7874 19.9406C17.1474 20.6276 17.5594 21.2816 18.0124 21.9026C18.0218 21.9153 18.0349 21.9248 18.05 21.9298C18.065 21.9349 18.0812 21.9351 18.0964 21.9306C20.2507 21.2822 22.28 20.2743 24.0984 18.9496C24.1073 18.9434 24.1147 18.9353 24.1202 18.926C24.1257 18.9167 24.1292 18.9063 24.1304 18.8956C24.6304 13.8016 23.2924 9.37557 20.5814 5.45357C20.5747 5.44082 20.5637 5.43089 20.5504 5.42557ZM8.25339 16.2116C7.07139 16.2116 6.09639 15.1426 6.09639 13.8316C6.09639 12.5196 7.05239 11.4516 8.25339 11.4516C9.46339 11.4516 10.4294 12.5286 10.4104 13.8316C10.4104 15.1436 9.45439 16.2116 8.25339 16.2116ZM16.2284 16.2116C15.0454 16.2116 14.0714 15.1426 14.0714 13.8316C14.0714 12.5196 15.0264 11.4516 16.2284 11.4516C17.4384 11.4516 18.4044 12.5286 18.3854 13.8316C18.3854 15.1436 17.4394 16.2116 16.2284 16.2116Z" fill="white"/>
</g>
<defs>
<clipPath id="clip0_632_2576">
<rect width="24" height="24" fill="white" transform="translate(0.233398 0.933594)"/>
</clipPath>
</defs>
</svg>
