<svg width="55" height="56" viewBox="0 0 55 56" fill="none" xmlns="http://www.w3.org/2000/svg">
<g clip-path="url(#clip0_642_1186)">
<path d="M3.55703 33.3146C2.7807 33.3273 2.11932 33.6501 1.63607 34.3589H1.61044V30.9937H0.490479V40.2511H1.54652V39.4128H1.5718C1.80085 39.7866 2.27158 40.4442 3.40405 40.4442C5.66864 40.4442 6.3305 38.2911 6.3305 36.68C6.3305 34.7845 5.32537 33.3146 3.55703 33.3146ZM3.37878 39.4647C2.66636 39.4647 1.55916 38.9873 1.55916 37.1952C1.55916 36.0993 1.73705 34.3329 3.35302 34.3329C5.0832 34.3329 5.17263 35.9966 5.17263 36.8601C5.17275 38.3423 4.59996 39.4647 3.37878 39.4647Z" fill="white"/>
<path d="M12.1959 39.0774V35.1968C12.1959 33.4697 10.2619 33.3145 9.72775 33.3145C8.08639 33.3145 7.03047 33.9462 6.97955 35.558H8.0102C8.08639 35.0419 8.26465 34.2561 9.5371 34.2561C10.593 34.2561 11.1019 34.642 11.1019 35.3515C11.1019 36.0219 10.7839 36.1255 10.5166 36.1516L8.67146 36.3828C6.81394 36.6146 6.64868 37.9301 6.64868 38.4976C6.64868 39.6574 7.51383 40.4439 8.73502 40.4439C10.0329 40.4439 10.7072 39.8251 11.1397 39.3484C11.1779 39.8639 11.3305 40.3793 12.3231 40.3793C12.5774 40.3793 12.7428 40.3023 12.9339 40.2508V39.4256C12.8062 39.4518 12.6665 39.4768 12.5648 39.4768C12.3361 39.4768 12.1959 39.3614 12.1959 39.0774ZM11.076 37.9171C11.076 38.8197 10.0583 39.5027 9.01497 39.5027C8.1751 39.5027 7.80595 39.0644 7.80595 38.3297C7.80595 37.4787 8.68398 37.3112 9.23114 37.2334C10.6181 37.053 10.8977 36.9502 11.0757 36.8081V37.9173H11.076V37.9171Z" fill="white"/>
<path d="M16.5473 33.3149C15.4022 33.3149 14.7786 34.1014 14.5371 34.4619H14.5115V33.5083H13.4556V40.2512H14.575V36.5766C14.575 34.7457 15.6949 34.3336 16.3311 34.3336C17.4253 34.3336 17.7562 34.9267 17.7562 36.0996V40.251H18.8757V35.6612C18.8757 33.7405 17.5778 33.3149 16.5473 33.3149Z" fill="white"/>
<path d="M24.2958 34.4617H24.2705C24.0035 34.0759 23.4942 33.3147 22.2857 33.3147C20.5173 33.3147 19.5122 34.7848 19.5122 36.68C19.5122 38.291 20.1737 40.444 22.4384 40.444C23.0879 40.444 23.8511 40.2382 24.3341 39.3223H24.3601V40.251H25.4155V30.9937H24.2963V34.4618H24.2958V34.4617ZM22.4636 39.4648C21.2419 39.4648 20.6696 38.3426 20.6696 36.8602C20.6696 35.9967 20.7587 34.333 22.4891 34.333C24.1048 34.333 24.2826 36.0993 24.2826 37.1953C24.2829 38.9873 23.1761 39.4648 22.4636 39.4648Z" fill="white"/>
<path d="M29.4232 34.3332C30.3649 34.3332 30.8612 34.8745 31.0006 35.7769H32.0824C31.9931 34.604 31.3313 33.314 29.5883 33.314C27.3875 33.314 26.395 34.9777 26.395 37.0659C26.395 39.0129 27.5019 40.4436 29.3719 40.4436C31.3191 40.4436 31.9677 38.9352 32.0824 37.8652H31.0006C30.8099 38.8964 30.161 39.464 29.4104 39.464C27.871 39.464 27.591 38.0326 27.591 36.8721C27.591 35.6736 28.0365 34.3332 29.4232 34.3332Z" fill="white"/>
<path d="M37.7443 39.0774V35.1968C37.7443 33.4697 35.8107 33.3145 35.2761 33.3145C33.6347 33.3145 32.5789 33.9462 32.5278 35.558H33.5584C33.6347 35.0419 33.8131 34.2561 35.0856 34.2561C36.1414 34.2561 36.6505 34.642 36.6505 35.3515C36.6505 36.0219 36.332 36.1255 36.0652 36.1516L34.2202 36.3828C32.3625 36.6146 32.1973 37.9301 32.1973 38.4976C32.1973 39.6574 33.0618 40.4439 34.2838 40.4439C35.5813 40.4439 36.256 39.8251 36.6885 39.3484C36.7264 39.8639 36.8788 40.3793 37.8719 40.3793C38.1258 40.3793 38.2916 40.3023 38.4825 40.2508V39.4256C38.355 39.4518 38.2153 39.4768 38.1138 39.4768C37.8846 39.4768 37.7443 39.3614 37.7443 39.0774ZM36.6246 37.9171C36.6246 38.8197 35.6066 39.5027 34.5639 39.5027C33.7232 39.5027 33.3548 39.0644 33.3548 38.3297C33.3548 37.4787 34.2324 37.3112 34.7797 37.2334C36.1666 37.053 36.4465 36.9502 36.6246 36.8081V37.9171Z" fill="white"/>
<path d="M45.8997 33.3149C44.8691 33.3149 44.4234 33.779 43.8646 34.411C43.6732 34.0499 43.2918 33.3149 42.0959 33.3149C40.9 33.3149 40.3273 34.1014 40.0856 34.4619H40.0598V33.5083H39.0044V40.2512H40.1237V36.5766C40.1237 34.7457 41.2431 34.3336 41.8792 34.3336C42.7058 34.3336 42.9225 35.0167 42.9225 35.584V40.2515H44.0425V36.1387C44.0425 35.2356 44.666 34.3336 45.6074 34.3336C46.5612 34.3336 46.8413 34.9652 46.8413 35.8935V40.2514H47.9607V35.5838C47.9608 33.6885 46.6124 33.3149 45.8997 33.3149Z" fill="white"/>
<path d="M51.9431 33.3149C50.7351 33.3149 50.2266 34.0761 49.9586 34.4619H49.9329V33.5083H48.877V42.9197H49.9969V39.5421H50.0224C50.3155 40.0189 50.9005 40.4442 51.7908 40.4442C54.0561 40.4442 54.7172 38.2912 54.7172 36.6802C54.7173 34.7849 53.712 33.3149 51.9431 33.3149ZM51.766 39.465C51.0532 39.465 49.946 38.9876 49.946 37.1955C49.946 36.0996 50.1244 34.3332 51.7399 34.3332C53.4706 34.3332 53.5598 35.9969 53.5598 36.8604C53.5596 38.3427 52.9867 39.465 51.766 39.465Z" fill="white"/>
<path d="M0.47168 30.7378H22.3054L30.7984 12.1182H8.96446L0.47168 30.7378Z" fill="white"/>
<path d="M36.7835 16.6483C35.2682 16.6736 33.9773 17.303 33.0337 18.6865H32.9835V12.1182H30.7981V30.1869H32.86V28.5511H32.9093C33.3564 29.2807 34.2753 30.5639 36.4851 30.5639C40.9059 30.5639 42.1971 26.3619 42.1971 23.2166C42.1969 19.5177 40.2355 16.6483 36.7835 16.6483ZM36.4354 28.652C35.0454 28.652 32.8847 27.7203 32.8847 24.2231C32.8847 22.084 33.2317 18.6365 36.386 18.6365C39.7633 18.6365 39.9371 21.8831 39.9371 23.569C39.9371 26.4617 38.8195 28.652 36.4354 28.652Z" fill="white"/>
<path d="M49.5075 18.6365C51.3452 18.6365 52.3148 19.6931 52.5874 21.4546H54.6978C54.5241 19.1652 53.2329 16.6479 49.8304 16.6479C45.5345 16.6479 43.5981 19.8945 43.5981 23.9707C43.5981 27.7711 45.7585 30.5638 49.4087 30.5638C53.2081 30.5638 54.4753 27.6198 54.6978 25.5313H52.5874C52.2145 27.5441 50.9487 28.6519 49.4839 28.6519C46.4792 28.6519 45.9323 25.8583 45.9323 23.5937C45.9325 21.2529 46.8018 18.6365 49.5075 18.6365Z" fill="white"/>
</g>
<defs>
<clipPath id="clip0_642_1186">
<rect width="54.2453" height="54.9679" fill="white" transform="translate(0.47168 0.0351562)"/>
</clipPath>
</defs>
</svg>
