<svg width="101" height="106" viewBox="0 0 101 106" fill="none" xmlns="http://www.w3.org/2000/svg">
<path d="M84.7583 0C90.6167 0 95.3417 5.02175 95.6208 10.9312V106L84.4667 95.9609L78.3417 90.0514L71.6583 83.8769L74.45 93.6157H15.9583C10.1167 93.6157 5.375 88.9119 5.375 82.68V10.9533C5.375 5.04383 10.125 0.01325 15.9792 0.01325H84.7292L84.7583 0ZM59.2667 25.0999H59.1417L58.3 25.9832C66.9375 28.6332 71.1167 32.7717 71.1167 32.7717C65.55 29.8213 60.5333 28.3462 55.5167 27.7499C51.8917 27.1537 48.2667 27.4672 45.2042 27.7499H44.3708C42.4125 27.7499 38.2458 28.6332 32.6625 30.9962C30.7167 31.8927 29.6 32.4802 29.6 32.4802C29.6 32.4802 33.775 28.0547 42.975 25.6917L42.4125 25.0955C42.4125 25.0955 35.4458 24.8128 27.925 30.7047C27.925 30.7047 20.4042 44.5907 20.4042 61.7097C20.4042 61.7097 24.5708 69.3947 36 69.6862C36 69.6862 37.6667 67.3321 39.3542 65.2607C32.9375 63.1937 30.4375 59.0597 30.4375 59.0597C30.4375 59.0597 30.9958 59.3512 31.8333 59.943H32.0833C32.2083 59.943 32.2667 60.0093 32.3333 60.0755V60.102C32.4 60.1727 32.4583 60.2345 32.5833 60.2345C33.9583 60.8352 35.3333 61.427 36.4583 62.0012C38.4 62.8933 40.8958 63.7811 43.9583 64.3685C47.8333 64.9648 52.275 65.2518 57.3333 64.3685C59.8333 63.7723 62.3333 63.1892 64.8333 62.0056C66.4583 61.1222 68.4583 60.2389 70.6542 58.7505C70.6542 58.7505 68.1542 62.8845 61.4667 64.9515C62.8417 67.0097 64.7792 69.3682 64.7792 69.3682C76.2125 69.1032 80.6542 61.4182 80.9042 61.745C80.9042 44.6525 73.3417 30.74 73.3417 30.74C66.5292 25.3782 60.1542 25.175 59.0292 25.175L59.2625 25.0867L59.2667 25.0999ZM59.9667 44.5907C62.8958 44.5907 65.2583 47.2407 65.2583 50.4869C65.2583 53.7552 62.8833 56.4052 59.9667 56.4052C57.05 56.4052 54.675 53.7552 54.675 50.5134C54.6833 47.2451 57.0625 44.6039 59.9667 44.6039V44.5907ZM41.0375 44.5907C43.9542 44.5907 46.3125 47.2407 46.3125 50.4869C46.3125 53.7552 43.9375 56.4052 41.0208 56.4052C38.1042 56.4052 35.7292 53.7552 35.7292 50.5134C35.7292 47.2451 38.1042 44.6039 41.0208 44.6039L41.0375 44.5907Z" fill="black"/>
</svg>
