<svg width="101" height="107" viewBox="0 0 101 107" fill="none" xmlns="http://www.w3.org/2000/svg">
<g clip-path="url(#clip0_641_1210)">
<path d="M84.7583 0.5C90.6167 0.5 95.3417 5.52175 95.6208 11.4312V106.5L84.4667 96.4609L78.3417 90.5514L71.6583 84.3769L74.45 94.1157H15.9583C10.1167 94.1157 5.375 89.4119 5.375 83.18V11.4533C5.375 5.54383 10.125 0.51325 15.9792 0.51325H84.7292L84.7583 0.5ZM59.2667 25.5999H59.1417L58.3 26.4832C66.9375 29.1332 71.1167 33.2717 71.1167 33.2717C65.55 30.3213 60.5333 28.8462 55.5167 28.2499C51.8917 27.6537 48.2667 27.9672 45.2042 28.2499H44.3708C42.4125 28.2499 38.2458 29.1332 32.6625 31.4962C30.7167 32.3927 29.6 32.9802 29.6 32.9802C29.6 32.9802 33.775 28.5547 42.975 26.1917L42.4125 25.5955C42.4125 25.5955 35.4458 25.3128 27.925 31.2047C27.925 31.2047 20.4042 45.0907 20.4042 62.2097C20.4042 62.2097 24.5708 69.8947 36 70.1862C36 70.1862 37.6667 67.8321 39.3542 65.7607C32.9375 63.6937 30.4375 59.5597 30.4375 59.5597C30.4375 59.5597 30.9958 59.8512 31.8333 60.443H32.0833C32.2083 60.443 32.2667 60.5093 32.3333 60.5755V60.602C32.4 60.6727 32.4583 60.7345 32.5833 60.7345C33.9583 61.3352 35.3333 61.927 36.4583 62.5012C38.4 63.3933 40.8958 64.2811 43.9583 64.8685C47.8333 65.4648 52.275 65.7518 57.3333 64.8685C59.8333 64.2723 62.3333 63.6892 64.8333 62.5056C66.4583 61.6222 68.4583 60.7389 70.6542 59.2505C70.6542 59.2505 68.1542 63.3845 61.4667 65.4515C62.8417 67.5097 64.7792 69.8682 64.7792 69.8682C76.2125 69.6032 80.6542 61.9182 80.9042 62.245C80.9042 45.1525 73.3417 31.24 73.3417 31.24C66.5292 25.8782 60.1542 25.675 59.0292 25.675L59.2625 25.5867L59.2667 25.5999ZM59.9667 45.0907C62.8958 45.0907 65.2583 47.7407 65.2583 50.9869C65.2583 54.2552 62.8833 56.9052 59.9667 56.9052C57.05 56.9052 54.675 54.2552 54.675 51.0134C54.6833 47.7451 57.0625 45.1039 59.9667 45.1039V45.0907ZM41.0375 45.0907C43.9542 45.0907 46.3125 47.7407 46.3125 50.9869C46.3125 54.2552 43.9375 56.9052 41.0208 56.9052C38.1042 56.9052 35.7292 54.2552 35.7292 51.0134C35.7292 47.7451 38.1042 45.1039 41.0208 45.1039L41.0375 45.0907Z" fill="black"/>
</g>
<defs>
<clipPath id="clip0_641_1210">
<rect width="100" height="106" fill="white" transform="translate(0.5 0.5)"/>
</clipPath>
</defs>
</svg>
