<svg width="151" height="30" viewBox="0 0 151 30" fill="none" xmlns="http://www.w3.org/2000/svg">
<path d="M9.03142 5.80126C6.88471 5.83256 5.05585 6.62913 3.71957 8.37786H3.64868V0.0744629H0.551758V22.9163H3.47195V20.848H3.54184C4.1752 21.7704 5.47687 23.3927 8.6084 23.3927C14.8705 23.3927 16.7007 18.0803 16.7007 14.105C16.7007 9.42813 13.9213 5.80126 9.03142 5.80126ZM8.53851 20.9759C6.56853 20.9759 3.50689 19.7981 3.50689 15.3761C3.50689 12.6722 3.99881 8.31377 8.46729 8.31377C13.2516 8.31377 13.4989 12.4188 13.4989 14.5495C13.4992 18.2067 11.9153 20.9759 8.53851 20.9759Z" fill="black"/>
<path d="M32.9197 20.0203V10.4454C32.9197 6.18387 27.5719 5.80078 26.0948 5.80078C21.5561 5.80078 18.6363 7.35962 18.4955 11.3365H21.3455C21.5561 10.0632 22.049 8.1243 25.5677 8.1243C28.4875 8.1243 29.8947 9.07646 29.8947 10.827C29.8947 12.4812 29.0154 12.7367 28.2762 12.8011L23.174 13.3717C18.0375 13.9435 17.5806 17.1894 17.5806 18.5896C17.5806 21.4515 19.9729 23.392 23.3497 23.392C26.9385 23.392 28.8034 21.8653 29.9992 20.6889C30.1047 21.961 30.5267 23.2328 33.2715 23.2328C33.9748 23.2328 34.4321 23.0426 34.9606 22.9156V20.8794C34.6075 20.9441 34.2211 21.0058 33.9398 21.0058C33.3075 21.0058 32.9197 20.7212 32.9197 20.0203ZM29.8231 17.1575C29.8231 19.3844 27.0088 21.0696 24.1239 21.0696C21.8014 21.0696 20.7807 19.9884 20.7807 18.1755C20.7807 16.0756 23.2086 15.6624 24.7216 15.4704C28.5567 15.0253 29.3299 14.7717 29.8221 14.4211V17.1578H29.8231V17.1575Z" fill="black"/>
<path d="M44.9523 5.80127C41.7858 5.80127 40.0615 7.7417 39.3938 8.63126H39.3229V6.27825H36.4031V22.9158H39.4987V13.8492C39.4987 9.33154 42.5953 8.31468 44.3546 8.31468C47.3802 8.31468 48.2952 9.77813 48.2952 12.6722V22.9155H51.3908V11.5904C51.3908 6.85123 47.8019 5.80127 44.9523 5.80127Z" fill="black"/>
<path d="M66.3788 8.63131H66.3089C65.5704 7.67945 64.1622 5.80132 60.8204 5.80132C55.9305 5.80132 53.1511 9.42849 53.1511 14.1047C53.1511 18.0798 54.9803 23.3922 61.2427 23.3922C63.0386 23.3922 65.1491 22.8842 66.4847 20.6245H66.5566V22.9158H69.4751V0.0742188H66.3802V8.63161H66.3788V8.63131ZM61.3123 20.976C57.9341 20.976 56.3515 18.2071 56.3515 14.5495C56.3515 12.4189 56.5978 8.31383 61.3828 8.31383C65.8507 8.31383 66.3422 12.672 66.3422 15.3762C66.3432 19.7978 63.2826 20.976 61.3123 20.976Z" fill="black"/>
<path d="M80.5568 8.31447C83.1608 8.31447 84.5334 9.65003 84.9188 11.8766H87.9102C87.6633 8.98255 85.8331 5.79956 81.0135 5.79956C74.9278 5.79956 72.1833 9.90462 72.1833 15.0572C72.1833 19.8611 75.244 23.3913 80.4151 23.3913C85.7995 23.3913 87.5931 19.6694 87.9102 17.0293H84.9188C84.3913 19.5737 82.597 20.9742 80.5216 20.9742C76.2648 20.9742 75.4906 17.4424 75.4906 14.579C75.4906 11.6218 76.7224 8.31447 80.5568 8.31447Z" fill="black"/>
<path d="M103.566 20.0203V10.4454C103.566 6.18387 98.2195 5.80078 96.7411 5.80078C92.2024 5.80078 89.2829 7.35962 89.1415 11.3365H91.9914C92.2024 10.0632 92.6957 8.1243 96.2143 8.1243C99.1338 8.1243 100.542 9.07646 100.542 10.827C100.542 12.4812 99.661 12.7367 98.9231 12.8011L93.8213 13.3717C88.6845 13.9435 88.2275 17.1894 88.2275 18.5896C88.2275 21.4515 90.6182 23.392 93.9974 23.392C97.5852 23.392 99.4507 21.8653 100.647 20.6889C100.752 21.961 101.173 23.2328 103.919 23.2328C104.621 23.2328 105.08 23.0426 105.608 22.9156V20.8794C105.255 20.9441 104.869 21.0058 104.588 21.0058C103.954 21.0058 103.566 20.7212 103.566 20.0203ZM100.47 17.1575C100.47 19.3844 97.6551 21.0696 94.7718 21.0696C92.4471 21.0696 91.4283 19.9884 91.4283 18.1755C91.4283 16.0756 93.8552 15.6624 95.3686 15.4704C99.2037 15.0253 99.9775 14.7717 100.47 14.4211V17.1575Z" fill="black"/>
<path d="M126.118 5.80127C123.268 5.80127 122.036 6.94633 120.491 8.50577C119.961 7.61471 118.907 5.80127 115.6 5.80127C112.293 5.80127 110.709 7.7417 110.041 8.63126H109.97V6.27825H107.051V22.9158H110.147V13.8492C110.147 9.33154 113.242 8.31468 115.001 8.31468C117.287 8.31468 117.886 10.0002 117.886 11.3999V22.9167H120.983V12.7685C120.983 10.5404 122.707 8.31468 125.31 8.31468C127.948 8.31468 128.722 9.87322 128.722 12.1636V22.9164H131.817V11.3996C131.818 6.72303 128.089 5.80127 126.118 5.80127Z" fill="black"/>
<path d="M142.829 5.80127C139.489 5.80127 138.083 7.6794 137.342 8.63126H137.27V6.27825H134.351V29.5002H137.448V21.1661H137.518C138.328 22.3428 139.946 23.3921 142.408 23.3921C148.672 23.3921 150.5 18.0797 150.5 14.1047C150.5 9.42814 147.72 5.80127 142.829 5.80127ZM142.339 20.9759C140.368 20.9759 137.307 19.7981 137.307 15.3761C137.307 12.6722 137.8 8.31378 142.267 8.31378C147.053 8.31378 147.3 12.4188 147.3 14.5495C147.299 18.2067 145.715 20.9759 142.339 20.9759Z" fill="black"/>
</svg>
