<svg width="55" height="31" viewBox="0 0 55 31" fill="none" xmlns="http://www.w3.org/2000/svg">
<path d="M3.55703 21.3146C2.7807 21.3273 2.11932 21.6501 1.63607 22.3589H1.61044V18.9937H0.490479V28.2511H1.54652V27.4128H1.5718C1.80085 27.7866 2.27158 28.4442 3.40405 28.4442C5.66864 28.4442 6.3305 26.2911 6.3305 24.68C6.3305 22.7845 5.32537 21.3146 3.55703 21.3146ZM3.37878 27.4647C2.66636 27.4647 1.55916 26.9873 1.55916 25.1952C1.55916 24.0993 1.73705 22.3329 3.35302 22.3329C5.0832 22.3329 5.17263 23.9966 5.17263 24.8601C5.17275 26.3423 4.59996 27.4647 3.37878 27.4647Z" fill="white"/>
<path d="M12.1959 27.0774V23.1968C12.1959 21.4697 10.2619 21.3145 9.72775 21.3145C8.08639 21.3145 7.03047 21.9462 6.97955 23.558H8.0102C8.08639 23.0419 8.26465 22.2561 9.5371 22.2561C10.593 22.2561 11.1019 22.642 11.1019 23.3515C11.1019 24.0219 10.7839 24.1255 10.5166 24.1516L8.67146 24.3828C6.81394 24.6146 6.64868 25.9301 6.64868 26.4976C6.64868 27.6574 7.51383 28.4439 8.73502 28.4439C10.0329 28.4439 10.7072 27.8251 11.1397 27.3484C11.1779 27.8639 11.3305 28.3793 12.3231 28.3793C12.5774 28.3793 12.7428 28.3023 12.9339 28.2508V27.4256C12.8062 27.4518 12.6665 27.4768 12.5648 27.4768C12.3361 27.4768 12.1959 27.3614 12.1959 27.0774ZM11.076 25.9171C11.076 26.8197 10.0583 27.5027 9.01497 27.5027C8.1751 27.5027 7.80595 27.0644 7.80595 26.3297C7.80595 25.4787 8.68398 25.3112 9.23114 25.2334C10.6181 25.053 10.8977 24.9502 11.0757 24.8081V25.9173H11.076V25.9171Z" fill="white"/>
<path d="M16.5473 21.3149C15.4022 21.3149 14.7786 22.1014 14.5371 22.4619H14.5115V21.5083H13.4556V28.2512H14.575V24.5766C14.575 22.7457 15.6949 22.3336 16.3311 22.3336C17.4253 22.3336 17.7562 22.9267 17.7562 24.0996V28.251H18.8757V23.6612C18.8757 21.7405 17.5778 21.3149 16.5473 21.3149Z" fill="white"/>
<path d="M24.2958 22.4617H24.2705C24.0035 22.0759 23.4942 21.3147 22.2857 21.3147C20.5173 21.3147 19.5122 22.7848 19.5122 24.68C19.5122 26.291 20.1737 28.444 22.4384 28.444C23.0879 28.444 23.8511 28.2382 24.3341 27.3223H24.3601V28.251H25.4155V18.9937H24.2963V22.4618H24.2958V22.4617ZM22.4636 27.4648C21.2419 27.4648 20.6696 26.3426 20.6696 24.8602C20.6696 23.9967 20.7587 22.333 22.4891 22.333C24.1048 22.333 24.2826 24.0993 24.2826 25.1953C24.2829 26.9873 23.1761 27.4648 22.4636 27.4648Z" fill="white"/>
<path d="M29.4232 22.3332C30.3649 22.3332 30.8612 22.8745 31.0006 23.7769H32.0824C31.9931 22.604 31.3313 21.314 29.5883 21.314C27.3875 21.314 26.395 22.9777 26.395 25.0659C26.395 27.0129 27.5019 28.4436 29.3719 28.4436C31.3191 28.4436 31.9677 26.9352 32.0824 25.8652H31.0006C30.8099 26.8964 30.161 27.464 29.4104 27.464C27.871 27.464 27.591 26.0326 27.591 24.8721C27.591 23.6736 28.0365 22.3332 29.4232 22.3332Z" fill="white"/>
<path d="M37.7443 27.0774V23.1968C37.7443 21.4697 35.8107 21.3145 35.2761 21.3145C33.6347 21.3145 32.5789 21.9462 32.5278 23.558H33.5584C33.6347 23.0419 33.8131 22.2561 35.0856 22.2561C36.1414 22.2561 36.6505 22.642 36.6505 23.3515C36.6505 24.0219 36.332 24.1255 36.0652 24.1516L34.2202 24.3828C32.3625 24.6146 32.1973 25.9301 32.1973 26.4976C32.1973 27.6574 33.0618 28.4439 34.2838 28.4439C35.5813 28.4439 36.256 27.8251 36.6885 27.3484C36.7264 27.8639 36.8788 28.3793 37.8719 28.3793C38.1258 28.3793 38.2916 28.3023 38.4825 28.2508V27.4256C38.355 27.4518 38.2153 27.4768 38.1138 27.4768C37.8846 27.4768 37.7443 27.3614 37.7443 27.0774ZM36.6246 25.9171C36.6246 26.8197 35.6066 27.5027 34.5639 27.5027C33.7232 27.5027 33.3548 27.0644 33.3548 26.3297C33.3548 25.4787 34.2324 25.3112 34.7797 25.2334C36.1666 25.053 36.4465 24.9502 36.6246 24.8081V25.9171Z" fill="white"/>
<path d="M45.8997 21.3149C44.8691 21.3149 44.4234 21.779 43.8646 22.411C43.6732 22.0499 43.2918 21.3149 42.0959 21.3149C40.9 21.3149 40.3273 22.1014 40.0856 22.4619H40.0598V21.5083H39.0044V28.2512H40.1237V24.5766C40.1237 22.7457 41.2431 22.3336 41.8792 22.3336C42.7058 22.3336 42.9225 23.0167 42.9225 23.584V28.2515H44.0425V24.1387C44.0425 23.2356 44.666 22.3336 45.6074 22.3336C46.5612 22.3336 46.8413 22.9652 46.8413 23.8935V28.2514H47.9607V23.5838C47.9608 21.6885 46.6124 21.3149 45.8997 21.3149Z" fill="white"/>
<path d="M51.9431 21.3149C50.7351 21.3149 50.2266 22.0761 49.9586 22.4619H49.9329V21.5083H48.877V30.9197H49.9969V27.5421H50.0224C50.3155 28.0189 50.9005 28.4442 51.7908 28.4442C54.0561 28.4442 54.7172 26.2912 54.7172 24.6802C54.7173 22.7849 53.712 21.3149 51.9431 21.3149ZM51.766 27.465C51.0532 27.465 49.946 26.9876 49.946 25.1955C49.946 24.0996 50.1244 22.3332 51.7399 22.3332C53.4706 22.3332 53.5598 23.9969 53.5598 24.8604C53.5596 26.3427 52.9867 27.465 51.766 27.465Z" fill="white"/>
<path d="M0.47168 18.7378H22.3054L30.7984 0.118164H8.96446L0.47168 18.7378Z" fill="white"/>
<path d="M36.7835 4.64827C35.2682 4.67364 33.9773 5.30298 33.0337 6.68653H32.9835V0.118164H30.7981V18.1869H32.86V16.5511H32.9093C33.3564 17.2807 34.2753 18.5639 36.4851 18.5639C40.9059 18.5639 42.1971 14.3619 42.1971 11.2166C42.1969 7.51772 40.2355 4.64827 36.7835 4.64827ZM36.4354 16.652C35.0454 16.652 32.8847 15.7203 32.8847 12.2231C32.8847 10.084 33.2317 6.63653 36.386 6.63653C39.7633 6.63653 39.9371 9.88309 39.9371 11.569C39.9371 14.4617 38.8195 16.652 36.4354 16.652Z" fill="white"/>
<path d="M49.5075 6.63645C51.3452 6.63645 52.3148 7.69315 52.5874 9.45455H54.6978C54.5241 7.16516 53.2329 4.64795 49.8304 4.64795C45.5345 4.64795 43.5981 7.89451 43.5981 11.9707C43.5981 15.7711 45.7585 18.5638 49.4087 18.5638C53.2081 18.5638 54.4753 15.6198 54.6978 13.5313H52.5874C52.2145 15.5441 50.9487 16.6519 49.4839 16.6519C46.4792 16.6519 45.9323 13.8583 45.9323 11.5937C45.9325 9.25294 46.8018 6.63645 49.5075 6.63645Z" fill="white"/>
</svg>
