<svg width="67" height="46" viewBox="0 0 67 46" fill="none" xmlns="http://www.w3.org/2000/svg">
<path d="M16.9101 11.1776C12.7198 11.2402 9.15031 12.7931 6.54098 16.2069H6.4022V0H0.359131V44.583H6.06072V40.5468H6.19718C7.43328 42.347 9.97439 45.5131 16.085 45.5131C28.3093 45.5131 31.8798 35.145 31.8798 27.3845C31.8791 18.2577 26.4554 11.1776 16.9101 11.1776ZM15.9476 40.7957C12.1038 40.7957 6.12895 38.4968 6.12895 29.8678C6.12895 24.5897 7.08848 16.0835 15.8108 16.0835C25.1498 16.0835 25.6304 24.0941 25.6304 28.2539C25.6304 35.3915 22.5401 40.7957 15.9476 40.7957Z" fill="black"/>
<path d="M52.095 16.0832C57.1765 16.0832 59.8578 18.6905 60.6116 23.0366H66.4473C65.9671 17.3878 62.3965 11.1768 52.988 11.1768C41.1088 11.1768 35.7544 19.1874 35.7544 29.2449C35.7544 38.6221 41.7282 45.5129 51.8218 45.5129C62.328 45.5129 65.8319 38.2489 66.4473 33.0957H60.6116C59.5805 38.062 56.0802 40.7954 52.0298 40.7954C43.7212 40.7954 42.2088 33.9025 42.2088 28.3147C42.2095 22.5392 44.6131 16.0832 52.095 16.0832Z" fill="black"/>
</svg>
