<svg width="151" height="30" viewBox="0 0 151 30" fill="none" xmlns="http://www.w3.org/2000/svg">
<path d="M9.03142 6.30102C6.88471 6.33231 5.05585 7.12888 3.71957 8.87762H3.64868V0.574219H0.551758V23.4161H3.47195V21.3478H3.54184C4.1752 22.2701 5.47687 23.8925 8.6084 23.8925C14.8705 23.8925 16.7007 18.5801 16.7007 14.6047C16.7007 9.92788 13.9213 6.30102 9.03142 6.30102ZM8.53851 21.4757C6.56853 21.4757 3.50689 20.2978 3.50689 15.8759C3.50689 13.172 3.99881 8.81353 8.46729 8.81353C13.2516 8.81353 13.4989 12.9186 13.4989 15.0492C13.4992 18.7065 11.9153 21.4757 8.53851 21.4757Z" fill="black"/>
<path d="M32.9197 20.5203V10.9454C32.9197 6.68387 27.5719 6.30078 26.0948 6.30078C21.5561 6.30078 18.6363 7.85962 18.4955 11.8365H21.3455C21.5561 10.5632 22.049 8.6243 25.5677 8.6243C28.4875 8.6243 29.8947 9.57646 29.8947 11.327C29.8947 12.9812 29.0154 13.2367 28.2762 13.3011L23.174 13.8717C18.0375 14.4435 17.5806 17.6894 17.5806 19.0896C17.5806 21.9515 19.9729 23.892 23.3497 23.892C26.9385 23.892 28.8034 22.3653 29.9992 21.1889C30.1047 22.461 30.5267 23.7328 33.2715 23.7328C33.9748 23.7328 34.4321 23.5426 34.9606 23.4156V21.3794C34.6075 21.4441 34.2211 21.5058 33.9398 21.5058C33.3075 21.5058 32.9197 21.2212 32.9197 20.5203ZM29.8231 17.6575C29.8231 19.8844 27.0088 21.5696 24.1239 21.5696C21.8014 21.5696 20.7807 20.4884 20.7807 18.6755C20.7807 16.5756 23.2086 16.1624 24.7216 15.9704C28.5567 15.5253 29.3299 15.2717 29.8221 14.9211V17.6578H29.8231V17.6575Z" fill="black"/>
<path d="M44.9523 6.30127C41.7858 6.30127 40.0615 8.2417 39.3938 9.13126H39.3229V6.77825H36.4031V23.4158H39.4987V14.3492C39.4987 9.83154 42.5953 8.81468 44.3546 8.81468C47.3802 8.81468 48.2952 10.2781 48.2952 13.1722V23.4155H51.3908V12.0904C51.3908 7.35123 47.8019 6.30127 44.9523 6.30127Z" fill="black"/>
<path d="M66.3788 9.13131H66.3089C65.5704 8.17945 64.1622 6.30132 60.8204 6.30132C55.9305 6.30132 53.1511 9.92849 53.1511 14.6047C53.1511 18.5798 54.9803 23.8922 61.2427 23.8922C63.0386 23.8922 65.1491 23.3842 66.4847 21.1245H66.5566V23.4158H69.4751V0.574219H66.3802V9.13161H66.3788V9.13131ZM61.3123 21.476C57.9341 21.476 56.3515 18.7071 56.3515 15.0495C56.3515 12.9189 56.5978 8.81383 61.3828 8.81383C65.8507 8.81383 66.3422 13.172 66.3422 15.8762C66.3432 20.2978 63.2826 21.476 61.3123 21.476Z" fill="black"/>
<path d="M80.5568 8.81472C83.1608 8.81472 84.5334 10.1503 84.9188 12.3769H87.9102C87.6633 9.4828 85.8331 6.2998 81.0135 6.2998C74.9278 6.2998 72.1833 10.4049 72.1833 15.5575C72.1833 20.3613 75.244 23.8916 80.4151 23.8916C85.7995 23.8916 87.5931 20.1696 87.9102 17.5295H84.9188C84.3913 20.0739 82.597 21.4745 80.5216 21.4745C76.2648 21.4745 75.4906 17.9427 75.4906 15.0793C75.4906 12.122 76.7224 8.81472 80.5568 8.81472Z" fill="black"/>
<path d="M103.566 20.5203V10.9454C103.566 6.68387 98.2195 6.30078 96.7411 6.30078C92.2024 6.30078 89.2829 7.85962 89.1415 11.8365H91.9914C92.2024 10.5632 92.6957 8.6243 96.2143 8.6243C99.1338 8.6243 100.542 9.57646 100.542 11.327C100.542 12.9812 99.661 13.2367 98.9231 13.3011L93.8213 13.8717C88.6845 14.4435 88.2275 17.6894 88.2275 19.0896C88.2275 21.9515 90.6182 23.892 93.9974 23.892C97.5852 23.892 99.4507 22.3653 100.647 21.1889C100.752 22.461 101.173 23.7328 103.919 23.7328C104.621 23.7328 105.08 23.5426 105.608 23.4156V21.3794C105.255 21.4441 104.869 21.5058 104.588 21.5058C103.954 21.5058 103.566 21.2212 103.566 20.5203ZM100.47 17.6575C100.47 19.8844 97.6551 21.5696 94.7718 21.5696C92.4471 21.5696 91.4283 20.4884 91.4283 18.6755C91.4283 16.5756 93.8552 16.1624 95.3686 15.9704C99.2037 15.5253 99.9775 15.2717 100.47 14.9211V17.6575Z" fill="black"/>
<path d="M126.118 6.30127C123.268 6.30127 122.036 7.44633 120.491 9.00577C119.961 8.11471 118.907 6.30127 115.6 6.30127C112.293 6.30127 110.709 8.2417 110.041 9.13126H109.97V6.77825H107.051V23.4158H110.147V14.3492C110.147 9.83154 113.242 8.81468 115.001 8.81468C117.287 8.81468 117.886 10.5002 117.886 11.8999V23.4167H120.983V13.2685C120.983 11.0404 122.707 8.81468 125.31 8.81468C127.948 8.81468 128.722 10.3732 128.722 12.6636V23.4164H131.817V11.8996C131.818 7.22303 128.089 6.30127 126.118 6.30127Z" fill="black"/>
<path d="M142.829 6.30127C139.489 6.30127 138.083 8.1794 137.342 9.13126H137.27V6.77825H134.351V30.0002H137.448V21.6661H137.518C138.328 22.8428 139.946 23.8921 142.408 23.8921C148.672 23.8921 150.5 18.5797 150.5 14.6047C150.5 9.92814 147.72 6.30127 142.829 6.30127ZM142.339 21.4759C140.368 21.4759 137.307 20.2981 137.307 15.8761C137.307 13.1722 137.8 8.81378 142.267 8.81378C147.053 8.81378 147.3 12.9188 147.3 15.0495C147.299 18.7067 145.715 21.4759 142.339 21.4759Z" fill="black"/>
</svg>
