<svg width="67" height="47" viewBox="0 0 67 47" fill="none" xmlns="http://www.w3.org/2000/svg">
<path d="M16.9101 11.6776C12.7198 11.7402 9.15031 13.2931 6.54098 16.7069H6.4022V0.5H0.359131V45.083H6.06072V41.0468H6.19718C7.43328 42.847 9.97439 46.0131 16.085 46.0131C28.3093 46.0131 31.8798 35.645 31.8798 27.8845C31.8791 18.7577 26.4554 11.6776 16.9101 11.6776ZM15.9476 41.2957C12.1038 41.2957 6.12895 38.9968 6.12895 30.3678C6.12895 25.0897 7.08848 16.5835 15.8108 16.5835C25.1498 16.5835 25.6304 24.5941 25.6304 28.7539C25.6304 35.8915 22.5401 41.2957 15.9476 41.2957Z" fill="black"/>
<path d="M52.095 16.5832C57.1765 16.5832 59.8578 19.1905 60.6116 23.5366H66.4473C65.9671 17.8878 62.3965 11.6768 52.988 11.6768C41.1088 11.6768 35.7544 19.6874 35.7544 29.7449C35.7544 39.1221 41.7282 46.0129 51.8218 46.0129C62.328 46.0129 65.8319 38.7489 66.4473 33.5957H60.6116C59.5805 38.562 56.0802 41.2954 52.0298 41.2954C43.7212 41.2954 42.2088 34.4025 42.2088 28.8147C42.2095 23.0392 44.6131 16.5832 52.095 16.5832Z" fill="black"/>
</svg>
