<svg width="57" height="61" viewBox="0 0 57 61" fill="none" xmlns="http://www.w3.org/2000/svg">
<path d="M40.3032 7.9076L55.7666 12.9573L51.7199 24.8055L36.2565 19.7558L27.1513 46.4141C26.1396 49.3761 21.7967 54.5428 12.5187 51.5129C3.24066 48.4831 2.94453 41.8015 3.95622 38.8395C4.96791 35.8775 9.31079 30.7109 18.5888 33.7407C27.8669 36.7705 28.163 43.4521 27.1513 46.4141L40.3032 7.9076Z" fill="#7236DA"/>
<path d="M27.1513 46.4141L36.2565 19.7558L27.1513 46.4141ZM27.1513 46.4141C26.1396 49.3761 21.7967 54.5428 12.5187 51.5129C3.24066 48.4831 2.94453 41.8015 3.95622 38.8395C4.96791 35.8775 9.31079 30.7109 18.5888 33.7407C27.8669 36.7705 28.163 43.4521 27.1513 46.4141ZM36.2565 19.7558L40.3032 7.9076L55.7666 12.9573L51.7199 24.8055L36.2565 19.7558Z" stroke="#7236DA" stroke-width="2" stroke-linecap="round" stroke-linejoin="round"/>
</svg>
