<svg width="91" height="90" viewBox="0 0 91 90" fill="none" xmlns="http://www.w3.org/2000/svg">
<g clip-path="url(#clip0_647_6418)">
<path d="M65.6623 0H25.3361C11.6415 0 0.5 11.142 0.5 24.8366V65.1629C0.5 78.858 11.6415 89.9995 25.3361 89.9995H65.6623C79.358 89.9995 90.4995 78.8575 90.4995 65.1629V24.8366C90.5 11.142 79.358 0 65.6623 0ZM82.5148 65.1629C82.5148 74.455 74.955 82.0143 65.6629 82.0143H25.3361C16.0445 82.0148 8.48519 74.455 8.48519 65.1629V24.8366C8.48519 15.545 16.0445 7.98519 25.3361 7.98519H65.6623C74.9544 7.98519 82.5143 15.545 82.5143 24.8366V65.1629H82.5148Z" fill="black"/>
<path d="M45.4997 21.8101C32.7122 21.8101 22.3091 32.2132 22.3091 45.0006C22.3091 57.7876 32.7122 68.1902 45.4997 68.1902C58.2871 68.1902 68.6902 57.7876 68.6902 45.0006C68.6902 32.2132 58.2871 21.8101 45.4997 21.8101ZM45.4997 60.2044C37.1158 60.2044 30.2943 53.384 30.2943 45.0001C30.2943 36.6157 37.1152 29.7947 45.4997 29.7947C53.8841 29.7947 60.7051 36.6157 60.7051 45.0001C60.7051 53.384 53.8836 60.2044 45.4997 60.2044Z" fill="black"/>
<path d="M69.6629 15.0391C68.1245 15.0391 66.6131 15.6619 65.5266 16.7532C64.4348 17.8392 63.8071 19.3511 63.8071 20.8949C63.8071 22.4339 64.4353 23.9452 65.5266 25.0365C66.6126 26.1225 68.1245 26.7507 69.6629 26.7507C71.2067 26.7507 72.7133 26.1225 73.8046 25.0365C74.8959 23.9452 75.5187 22.4333 75.5187 20.8949C75.5187 19.3511 74.8959 17.8392 73.8046 16.7532C72.7186 15.6619 71.2067 15.0391 69.6629 15.0391Z" fill="black"/>
</g>
<defs>
<clipPath id="clip0_647_6418">
<rect width="90" height="90" fill="white" transform="translate(0.5)"/>
</clipPath>
</defs>
</svg>
