<svg width="91" height="91" viewBox="0 0 91 91" fill="none" xmlns="http://www.w3.org/2000/svg">
<g clip-path="url(#clip0_641_1131)">
<path d="M65.6623 0.5H25.3361C11.6415 0.5 0.5 11.642 0.5 25.3366V65.6629C0.5 79.358 11.6415 90.4995 25.3361 90.4995H65.6623C79.358 90.4995 90.4995 79.3575 90.4995 65.6629V25.3366C90.5 11.642 79.358 0.5 65.6623 0.5ZM82.5148 65.6629C82.5148 74.955 74.955 82.5143 65.6629 82.5143H25.3361C16.0445 82.5148 8.48519 74.955 8.48519 65.6629V25.3366C8.48519 16.045 16.0445 8.48519 25.3361 8.48519H65.6623C74.9544 8.48519 82.5143 16.045 82.5143 25.3366V65.6629H82.5148Z" fill="black"/>
<path d="M45.4997 22.3103C32.7122 22.3103 22.3091 32.7134 22.3091 45.5009C22.3091 58.2878 32.7122 68.6904 45.4997 68.6904C58.2871 68.6904 68.6902 58.2878 68.6902 45.5009C68.6902 32.7134 58.2871 22.3103 45.4997 22.3103ZM45.4997 60.7047C37.1158 60.7047 30.2943 53.8843 30.2943 45.5004C30.2943 37.1159 37.1152 30.295 45.4997 30.295C53.8841 30.295 60.7051 37.1159 60.7051 45.5004C60.7051 53.8843 53.8836 60.7047 45.4997 60.7047Z" fill="black"/>
<path d="M69.6629 15.5393C68.1245 15.5393 66.6131 16.1622 65.5266 17.2535C64.4348 18.3394 63.8071 19.8513 63.8071 21.3951C63.8071 22.9341 64.4353 24.4455 65.5266 25.5368C66.6126 26.6227 68.1245 27.2509 69.6629 27.2509C71.2067 27.2509 72.7133 26.6227 73.8046 25.5368C74.8959 24.4455 75.5187 22.9336 75.5187 21.3951C75.5187 19.8513 74.8959 18.3394 73.8046 17.2535C72.7186 16.1622 71.2067 15.5393 69.6629 15.5393Z" fill="black"/>
</g>
<defs>
<clipPath id="clip0_641_1131">
<rect width="90" height="90" fill="white" transform="translate(0.5 0.5)"/>
</clipPath>
</defs>
</svg>
