<svg width="174" height="33" viewBox="0 0 174 33" fill="none" xmlns="http://www.w3.org/2000/svg">
<g clip-path="url(#clip0_632_2547)">
<path d="M54.1744 5.30664C52.1457 5.30664 50.1907 5.528 49.3945 5.71514C48.2356 5.99812 47.9466 6.43856 47.7285 7.3514L43.1299 25.7794C43.0563 26.1559 42.9854 26.4708 42.9854 26.7858C42.9854 27.6986 43.6738 28.2942 44.7959 28.2942C46.0283 28.2942 46.5355 27.6028 46.7877 26.5325L48.0911 21.2813C48.995 21.3749 50.1907 21.4708 51.8935 21.4708C59.3905 21.4708 64.06 17.9495 64.06 12.6345C64.06 7.97898 60.3286 5.30664 54.1744 5.30664ZM51.7121 18.4515C50.5533 18.4515 49.6467 18.4196 48.8164 18.326L51.2418 8.54494C52.0012 8.45138 53.1259 8.32358 54.2847 8.32358C58.2684 8.32358 60.297 9.95984 60.297 12.6641C60.2944 16.1238 57.396 18.4515 51.7121 18.4515Z" fill="white"/>
<path d="M172.148 22.2237C171.533 22.2237 171.133 22.5387 170.374 23.2621C169.034 24.4579 168.201 25.1175 167.152 25.1175C166.212 25.1175 165.704 24.4579 165.704 23.3876C165.704 22.7897 165.849 22.0663 166.03 21.2812L167.37 15.8088H171.391C172.657 15.8088 173.419 15.1789 173.419 14.047C173.419 13.4171 172.949 12.947 171.864 12.947H168.093L168.745 10.4002C168.818 10.0236 168.889 9.67676 168.889 9.36183C168.889 8.48093 168.201 7.85107 167.079 7.85107C165.883 7.85107 165.342 8.54255 165.087 9.61286L164.254 12.947H162.551C161.248 12.947 160.488 13.5769 160.488 14.7088C160.488 15.3386 160.995 15.8088 162.081 15.8088H163.565L162.225 21.2173C162.081 21.8153 161.899 22.7897 161.899 23.7961C161.899 26.3429 163.421 28.1983 166.679 28.1983C168.563 28.1983 170.227 27.3813 171.496 26.4046C172.728 25.462 173.632 24.2982 173.632 23.5428C173.632 22.8217 172.981 22.2237 172.148 22.2237Z" fill="white"/>
<path d="M88.8633 7.16163C88.8633 6.24879 88.1381 5.65088 87.016 5.65088C85.8204 5.65088 85.2791 6.34236 85.0242 7.41266L80.4992 25.6832C80.3915 26.0597 80.3179 26.3746 80.3179 26.6896C80.3179 27.6024 81.0431 28.198 82.1284 28.198C83.3608 28.198 83.9021 27.5066 84.157 26.4363L88.682 8.16804C88.7556 7.78921 88.8633 7.47656 88.8633 7.16163Z" fill="white"/>
<path d="M153.498 12.632C147.704 12.632 143.757 17.6321 143.757 22.3811C143.757 22.4701 143.76 22.5591 143.763 22.6459C142.853 23.844 141.692 25.0854 140.896 25.0854C140.318 25.0854 140.1 24.613 140.1 23.8896C140.1 23.0087 140.389 21.5299 140.714 20.2405L143.721 8.16364C143.794 7.7871 143.865 7.47217 143.865 7.15724C143.865 6.24439 143.177 5.64648 142.055 5.64648C140.822 5.64648 140.318 6.33796 140.063 7.40827L138.434 13.9488C137.564 13.1637 136.295 12.6274 134.376 12.6274C130.529 12.6274 126.659 15.1994 125.15 19.1451C123.489 22.8741 122.005 25.0809 120.833 25.0809C120.399 25.0809 120.144 24.7659 120.144 24.2319C120.144 22.6595 121.159 18.8233 121.592 16.968C121.737 16.2765 121.81 15.9935 121.81 15.585C121.81 14.2021 119.167 12.5658 115.727 12.5658C111.749 12.5658 108.146 14.7543 106.341 18.0041C103.658 22.121 101.196 25.0809 99.9762 25.0809C99.4323 25.0809 99.251 24.4829 99.1064 23.917L98.2051 19.5833L103.744 15.6535C104.252 15.277 104.903 14.7407 104.903 14.0492C104.903 13.2002 104.252 12.6343 103.274 12.6343C102.549 12.6343 101.934 13.0108 101.319 13.4513L92.9916 19.4258L95.7797 8.16821C95.8533 7.79166 95.961 7.47673 95.961 7.1618C95.961 6.24896 95.2357 5.65105 94.1137 5.65105C92.9181 5.65105 92.3767 6.34253 92.1218 7.41283L87.5968 25.6833C87.4891 26.0599 87.4155 26.3748 87.4155 26.6897C87.4155 27.6026 88.1408 28.1982 89.2261 28.1982C90.4585 28.1982 90.9998 27.5067 91.2547 26.4364L91.8354 24.079L95.2384 21.6897L96.0714 25.3365C96.3972 26.7833 97.267 28.1982 99.5111 28.1982C101.745 28.1982 103.503 26.4273 105.263 24.0334C105.797 26.5414 107.852 28.1982 110.703 28.1982C113.564 28.1982 115.519 26.7194 116.786 24.7385V24.8024C116.786 26.8472 117.982 28.1982 120.081 28.1982C121.981 28.1982 123.558 27.2032 124.966 25.09C125.765 26.9316 127.552 28.1982 130.038 28.1982C132.97 28.1982 135.07 26.6578 136.41 24.5195V24.7089C136.41 26.9727 137.714 28.2005 139.85 28.2005C141.737 28.2005 143.34 27.2489 144.709 25.7016C145.749 27.2489 147.615 28.2005 150.135 28.2005C155.929 28.2005 159.876 23.2004 159.876 18.4194C159.873 15.0533 157.519 12.632 153.498 12.632ZM117.398 19.0173C116.347 22.9471 114.103 25.1813 111.567 25.1813C109.864 25.1813 108.924 24.0493 108.924 22.3515C108.924 19.0173 111.712 15.4321 115.441 15.4321C116.563 15.4321 117.432 15.7151 118.192 16.1236L117.398 19.0173ZM137.566 17.3514C136.408 21.9749 133.764 25.1813 130.868 25.1813C129.276 25.1813 128.332 24.111 128.332 22.3515C128.332 18.9876 131.013 15.496 134.597 15.496C135.974 15.496 137.022 15.9045 137.784 16.4385L137.566 17.3514ZM150.566 25.1813C148.466 25.1813 147.597 23.8599 147.597 22.194C147.597 19.1428 150.022 15.6535 153.065 15.6535C155.164 15.6535 156.034 16.9748 156.034 18.6408C156.034 21.7216 153.609 25.1813 150.566 25.1813Z" fill="white"/>
<path d="M73.0758 12.6318C67.2816 12.6318 63.3347 17.6319 63.3347 22.381C63.3347 25.7767 65.6892 28.198 69.707 28.198C75.5012 28.198 79.4482 23.198 79.4482 18.417C79.4482 15.0531 77.0937 12.6318 73.0758 12.6318ZM70.1432 25.1811C68.0437 25.1811 67.1739 23.8598 67.1739 22.1938C67.1739 19.1427 69.5993 15.6533 72.6423 15.6533C74.7418 15.6533 75.6116 16.9747 75.6116 18.6406C75.609 21.7214 73.1836 25.1811 70.1432 25.1811Z" fill="white"/>
<path d="M17.7852 7.25534C21.4758 7.25534 24.4676 5.7442 24.4676 3.88011C24.4676 2.01602 21.4758 0.504883 17.7852 0.504883C14.0946 0.504883 11.1028 2.01602 11.1028 3.88011C11.1028 5.7442 14.0946 7.25534 17.7852 7.25534Z" fill="#723CCD"/>
<path d="M17.7852 32.687C21.4758 32.687 24.4676 31.1758 24.4676 29.3118C24.4676 27.4477 21.4758 25.9365 17.7852 25.9365C14.0946 25.9365 11.1028 27.4477 11.1028 29.3118C11.1028 31.1758 14.0946 32.687 17.7852 32.687Z" fill="#723CCD"/>
<path d="M8.47261 11.9275C10.3179 9.15183 10.3059 6.14565 8.44585 5.21298C6.58579 4.28031 3.582 5.77432 1.73671 8.54995C-0.108587 11.3256 -0.0966099 14.3318 1.76346 15.2644C3.62352 16.1971 6.62731 14.7031 8.47261 11.9275Z" fill="#723CCD"/>
<path d="M33.8304 24.642C35.6756 21.8663 35.6647 18.8607 33.8059 17.9286C31.9471 16.9966 28.9443 18.4911 27.099 21.2668C25.2537 24.0424 25.2647 27.0481 27.1235 27.9801C28.9823 28.9121 31.9851 27.4176 33.8304 24.642Z" fill="#723CCD"/>
<path d="M8.44683 27.9789C10.3069 27.0462 10.3189 24.0401 8.47358 21.2644C6.62829 18.4888 3.6245 16.9948 1.76443 17.9275C-0.0956334 18.8601 -0.10761 21.8663 1.73768 24.6419C3.58298 27.4176 6.58676 28.9116 8.44683 27.9789Z" fill="#723CCD"/>
<path d="M33.8076 15.2652C35.6664 14.3332 35.6774 11.3275 33.8321 8.55187C31.9868 5.77624 28.984 4.28171 27.1252 5.21375C25.2664 6.1458 25.2554 9.15146 27.1007 11.9271C28.946 14.7027 31.9488 16.1973 33.8076 15.2652Z" fill="#723CCD"/>
</g>
<defs>
<clipPath id="clip0_632_2547">
<rect width="173.269" height="32.1845" fill="white" transform="translate(0.363037 0.504883)"/>
</clipPath>
</defs>
</svg>
