<svg width="121" height="16" viewBox="0 0 121 16" fill="none" xmlns="http://www.w3.org/2000/svg">
<path d="M100.734 7.77418C99.8808 7.21384 98.9285 6.80753 98.0273 6.31623C97.4285 6.0278 96.8568 5.68742 96.3191 5.29911C95.4609 4.60067 95.6331 3.22504 96.5396 2.62486C97.8255 1.7724 99.9642 2.25573 100.185 3.98987C100.186 4.00796 100.194 4.02486 100.208 4.03718C100.221 4.0495 100.239 4.05632 100.257 4.05627H102.2C102.211 4.05632 102.222 4.0541 102.232 4.04974C102.242 4.04538 102.251 4.03899 102.258 4.03097C102.265 4.02295 102.271 4.01349 102.274 4.00321C102.278 3.99292 102.279 3.98205 102.278 3.97128C102.173 2.77358 101.713 1.77771 100.857 1.14035C100.066 0.538539 99.0962 0.210101 98.0972 0.205566C92.951 0.205566 92.4829 5.58327 95.2511 7.28023C95.5739 7.47675 98.2882 8.82317 99.2486 9.40476C100.209 9.98635 100.51 11.0645 100.093 11.917C99.714 12.6978 98.7294 13.2209 97.7448 13.1705C96.6688 13.1147 95.8348 12.5358 95.5416 11.6355C95.4941 11.4361 95.4689 11.2322 95.4663 11.0274C95.4649 11.0079 95.4561 10.9896 95.4416 10.9763C95.4271 10.963 95.4081 10.9556 95.3883 10.9557H93.2738C93.2529 10.9563 93.233 10.965 93.2185 10.9799C93.2039 10.9948 93.1958 11.0146 93.1958 11.0353C93.1958 12.5437 93.5778 13.3776 94.6054 14.1398C95.5061 14.8144 96.6089 15.1733 97.7394 15.1596C100.615 15.1596 102.116 13.5502 102.412 11.8825C102.708 10.2147 102.221 8.74615 100.734 7.77418Z" fill="white"/>
<path d="M9.13965 0.46342H7.18929C7.17289 0.462869 7.15678 0.46782 7.14359 0.477465C7.1304 0.487111 7.12091 0.500884 7.11666 0.516537L5.37883 6.14918C5.37446 6.16489 5.36499 6.17874 5.35186 6.18861C5.33874 6.19849 5.32269 6.20384 5.30619 6.20384C5.28969 6.20384 5.27365 6.19849 5.26053 6.18861C5.24741 6.17874 5.23793 6.16489 5.23356 6.14918L3.49842 0.516537C3.49325 0.500906 3.48315 0.487314 3.4696 0.477757C3.45605 0.4682 3.43975 0.463176 3.42309 0.46342H0.213759C0.193526 0.463409 0.174081 0.471153 0.159526 0.485027C0.14497 0.4989 0.13644 0.517817 0.135742 0.537778V14.9288C0.135742 14.9492 0.143963 14.9688 0.158594 14.9832C0.173224 14.9977 0.193068 15.0058 0.213759 15.0058H2.32821C2.33833 15.0058 2.34835 15.0038 2.35767 14.9999C2.36699 14.996 2.37542 14.9903 2.38245 14.9831C2.38948 14.9759 2.39497 14.9674 2.39859 14.958C2.40221 14.9487 2.40389 14.9388 2.40353 14.9288V3.99544C2.40496 3.97802 2.41234 3.96161 2.42447 3.94889C2.43659 3.93616 2.45274 3.92789 2.47026 3.92542C2.48778 3.92295 2.50563 3.92642 2.52088 3.93529C2.53613 3.94415 2.54787 3.95787 2.55418 3.9742L4.30277 9.64402L4.42383 10.0397C4.429 10.0553 4.43909 10.0689 4.45265 10.0785C4.4662 10.088 4.4825 10.0931 4.49915 10.0928H6.11324C6.12989 10.0931 6.14619 10.088 6.15974 10.0785C6.17329 10.0689 6.18339 10.0553 6.18856 10.0397L6.30962 9.64402L8.05821 3.9742C8.06452 3.95787 8.07626 3.94415 8.09151 3.93529C8.10676 3.92642 8.12461 3.92295 8.14213 3.92542C8.15965 3.92789 8.1758 3.93616 8.18792 3.94889C8.20005 3.96161 8.20743 3.97802 8.20886 3.99544V14.9288C8.2085 14.9388 8.21018 14.9487 8.2138 14.958C8.21742 14.9674 8.22291 14.9759 8.22995 14.9831C8.23698 14.9903 8.2454 14.996 8.25472 14.9999C8.26404 15.0038 8.27406 15.0058 8.28418 15.0058H10.3986C10.4193 15.0058 10.4392 14.9977 10.4538 14.9832C10.4684 14.9688 10.4766 14.9492 10.4766 14.9288V0.537778C10.4759 0.517817 10.4674 0.4989 10.4529 0.485027C10.4383 0.471153 10.4189 0.463409 10.3986 0.46342H9.13965Z" fill="white"/>
<path d="M68.4276 0.46338C68.4114 0.463694 68.3957 0.468978 68.3827 0.478495C68.3697 0.488012 68.36 0.501295 68.3549 0.516497L66.6198 6.14914C66.6146 6.16445 66.6047 6.17776 66.5914 6.1872C66.5781 6.19663 66.5622 6.2017 66.5458 6.2017C66.5295 6.2017 66.5135 6.19663 66.5002 6.1872C66.487 6.17776 66.477 6.16445 66.4718 6.14914L64.7367 0.516497C64.732 0.501078 64.7224 0.487561 64.7093 0.477984C64.6962 0.468408 64.6804 0.463284 64.6641 0.46338H61.4547C61.4345 0.463368 61.415 0.471113 61.4005 0.484987C61.3859 0.49886 61.3774 0.517777 61.3767 0.537738V14.9287C61.3767 14.9492 61.3849 14.9687 61.3996 14.9832C61.4142 14.9976 61.434 15.0057 61.4547 15.0057H63.5692C63.5894 15.0051 63.6086 14.9966 63.6226 14.9823C63.6367 14.9679 63.6445 14.9487 63.6445 14.9287V3.9954C63.6459 3.97798 63.6533 3.96157 63.6654 3.94885C63.6776 3.93612 63.6937 3.92785 63.7112 3.92537C63.7287 3.9229 63.7466 3.92638 63.7618 3.93525C63.7771 3.94411 63.7888 3.95783 63.7951 3.97416L65.5437 9.64398L65.6648 10.0397C65.6698 10.0549 65.6795 10.0682 65.6925 10.0777C65.7055 10.0872 65.7212 10.0925 65.7374 10.0928H67.3515C67.3679 10.0933 67.384 10.0884 67.3972 10.0787C67.4104 10.0691 67.4199 10.0553 67.4241 10.0397L67.5479 9.64398L69.2938 3.97416C69.3001 3.95783 69.3118 3.94411 69.3271 3.93525C69.3423 3.92638 69.3602 3.9229 69.3777 3.92537C69.3952 3.92785 69.4114 3.93612 69.4235 3.94885C69.4356 3.96157 69.443 3.97798 69.4444 3.9954V14.9287C69.4444 14.9492 69.4527 14.9687 69.4673 14.9832C69.4819 14.9976 69.5018 15.0057 69.5225 15.0057H71.6369C71.6571 15.0051 71.6763 14.9966 71.6903 14.9823C71.7044 14.9679 71.7122 14.9487 71.7122 14.9287V0.537738C71.7116 0.518228 71.7034 0.499698 71.6894 0.485894C71.6754 0.47209 71.6567 0.464042 71.6369 0.46338H68.4276Z" fill="white"/>
<path d="M41.2168 0.463379H31.2633C31.2431 0.463367 31.2236 0.471112 31.2091 0.484985C31.1945 0.498859 31.186 0.517775 31.1853 0.537737V2.33827C31.186 2.35823 31.1945 2.37715 31.2091 2.39102C31.2236 2.4049 31.2431 2.41264 31.2633 2.41263H35.1183V14.9287C35.1183 14.9388 35.1203 14.9489 35.1242 14.9582C35.1282 14.9675 35.1339 14.976 35.1411 14.9832C35.1484 14.9903 35.157 14.996 35.1665 14.9999C35.1759 15.0037 35.1861 15.0057 35.1963 15.0057H37.3108C37.331 15.0051 37.3501 14.9966 37.3642 14.9823C37.3782 14.9679 37.3861 14.9487 37.3861 14.9287V2.41263H41.2168C41.2371 2.41264 41.2565 2.4049 41.2711 2.39102C41.2856 2.37715 41.2942 2.35823 41.2949 2.33827V0.537737C41.2942 0.517775 41.2856 0.498859 41.2711 0.484985C41.2565 0.471112 41.2371 0.463367 41.2168 0.463379Z" fill="white"/>
<path d="M53.6695 15.0057H55.5903C55.602 15.0058 55.6137 15.0031 55.6242 14.9979C55.6347 14.9928 55.6439 14.9852 55.651 14.976C55.658 14.9667 55.6628 14.9559 55.6649 14.9444C55.6669 14.933 55.6663 14.9212 55.6629 14.9101L51.7084 0.471295C51.7037 0.455168 51.6938 0.440993 51.6802 0.430926C51.6666 0.42086 51.6501 0.415456 51.6331 0.415528H48.873C48.856 0.415456 48.8394 0.42086 48.8258 0.430926C48.8122 0.440993 48.8023 0.455168 48.7977 0.471295L44.8297 14.9101C44.8268 14.9214 44.8266 14.9332 44.8291 14.9446C44.8315 14.956 44.8366 14.9668 44.8438 14.976C44.8511 14.9852 44.8604 14.9926 44.871 14.9978C44.8816 15.0029 44.8932 15.0056 44.905 15.0057H46.8258C46.8427 15.005 46.8589 14.999 46.872 14.9884C46.8851 14.9779 46.8944 14.9635 46.8984 14.9473L48.0525 10.7513C48.0567 10.7354 48.066 10.7213 48.0792 10.7112C48.0923 10.7011 48.1085 10.6956 48.1251 10.6956H52.3702C52.3867 10.6961 52.4026 10.7017 52.4157 10.7117C52.4288 10.7218 52.4383 10.7356 52.4428 10.7513L53.5915 14.9446C53.5947 14.9624 53.6045 14.9784 53.6188 14.9897C53.6332 15.0009 53.6512 15.0066 53.6695 15.0057ZM48.6282 8.65071L50.1723 3.02869C50.1775 3.01338 50.1875 3.00007 50.2007 2.99063C50.214 2.9812 50.2299 2.97613 50.2463 2.97613C50.2627 2.97613 50.2786 2.9812 50.2919 2.99063C50.3051 3.00007 50.3151 3.01338 50.3203 3.02869L51.8644 8.65071C51.8678 8.66184 51.8685 8.6736 51.8664 8.68504C51.8643 8.69648 51.8596 8.70728 51.8525 8.71657C51.8454 8.72587 51.8363 8.7334 51.8257 8.73857C51.8152 8.74373 51.8036 8.74638 51.7918 8.74632H48.7035C48.6917 8.74626 48.68 8.74355 48.6694 8.7384C48.6588 8.73325 48.6496 8.72579 48.6423 8.71658C48.6351 8.70737 48.63 8.69666 48.6276 8.68525C48.6251 8.67384 48.6253 8.66203 48.6282 8.65071Z" fill="white"/>
<path d="M86.4115 15.0057H88.3295C88.3413 15.0057 88.353 15.003 88.3636 14.9978C88.3742 14.9927 88.3835 14.9852 88.3907 14.976C88.398 14.9668 88.403 14.9561 88.4055 14.9447C88.4079 14.9333 88.4077 14.9214 88.4049 14.9101L84.4369 0.471331C84.4326 0.454971 84.4228 0.440532 84.4091 0.430396C84.3955 0.420259 84.3787 0.41503 84.3616 0.415565H81.6122C81.5953 0.415492 81.5787 0.420897 81.5651 0.430963C81.5515 0.441029 81.5416 0.455205 81.5369 0.471331L77.5717 14.9101C77.5689 14.9212 77.5686 14.9328 77.5709 14.944C77.5732 14.9552 77.578 14.9658 77.5849 14.975C77.5919 14.9841 77.6008 14.9917 77.6111 14.997C77.6214 15.0023 77.6327 15.0053 77.6443 15.0057H79.565C79.5821 15.0055 79.5985 14.9996 79.6117 14.989C79.6249 14.9784 79.634 14.9637 79.6377 14.9473L80.7918 10.7514C80.7964 10.7352 80.8063 10.7211 80.8199 10.711C80.8335 10.7009 80.8501 10.6955 80.8671 10.6956H85.1094C85.1261 10.6957 85.1422 10.7012 85.1554 10.7113C85.1685 10.7214 85.1779 10.7355 85.1821 10.7514L86.3361 14.9473C86.3403 14.9639 86.35 14.9787 86.3636 14.9893C86.3773 14.9999 86.3941 15.0056 86.4115 15.0057ZM81.3701 8.65074L82.9143 3.02873C82.9195 3.01342 82.9294 3.0001 82.9427 2.99067C82.956 2.98124 82.9719 2.97616 82.9883 2.97616C83.0046 2.97616 83.0206 2.98124 83.0338 2.99067C83.0471 3.0001 83.057 3.01342 83.0622 3.02873L84.6064 8.65074C84.6092 8.66206 84.6094 8.67387 84.607 8.68528C84.6045 8.6967 84.5995 8.70741 84.5922 8.71662C84.585 8.72582 84.5757 8.73328 84.5651 8.73843C84.5545 8.74358 84.5429 8.74629 84.5311 8.74635H81.4428C81.431 8.74642 81.4194 8.74377 81.4088 8.7386C81.3983 8.73344 81.3891 8.7259 81.3821 8.71661C81.375 8.70731 81.3702 8.69651 81.3682 8.68507C81.3661 8.67364 81.3668 8.66188 81.3701 8.65074Z" fill="white"/>
<path d="M19.0125 12.8786V8.41175C19.0121 8.40189 19.0138 8.39205 19.0174 8.38286C19.0211 8.37367 19.0266 8.36532 19.0337 8.35834C19.0408 8.35136 19.0492 8.3459 19.0585 8.3423C19.0678 8.33869 19.0778 8.33702 19.0878 8.33739H24.7048C24.725 8.3367 24.7442 8.32829 24.7582 8.31392C24.7723 8.29955 24.7801 8.28035 24.7801 8.26038V6.4625C24.7801 6.44253 24.7723 6.42333 24.7582 6.40896C24.7442 6.39459 24.725 6.38617 24.7048 6.38549H19.0878C19.0678 6.38549 19.0487 6.37765 19.0345 6.36371C19.0204 6.34976 19.0125 6.33085 19.0125 6.31113V2.48964C19.0121 2.47966 19.0138 2.4697 19.0174 2.46037C19.021 2.45104 19.0265 2.44253 19.0336 2.43534C19.0406 2.42815 19.049 2.42243 19.0583 2.41853C19.0676 2.41463 19.0777 2.41262 19.0878 2.41263H25.4796C25.4998 2.41264 25.5192 2.4049 25.5338 2.39102C25.5484 2.37715 25.5569 2.35823 25.5576 2.33827V0.537737C25.5569 0.517775 25.5484 0.498859 25.5338 0.484985C25.5192 0.471112 25.4998 0.463367 25.4796 0.463379H16.82C16.8 0.463379 16.7809 0.471211 16.7667 0.485155C16.7526 0.4991 16.7447 0.518016 16.7447 0.537737V14.9287C16.7443 14.9387 16.746 14.9487 16.7496 14.958C16.7532 14.9673 16.7587 14.9758 16.7658 14.983C16.7728 14.9902 16.7812 14.9959 16.7905 14.9998C16.7999 15.0037 16.8099 15.0058 16.82 15.0057H25.754C25.7747 15.0057 25.7945 14.9976 25.8091 14.9832C25.8238 14.9687 25.832 14.9492 25.832 14.9287V13.0299C25.832 13.0095 25.8238 12.9899 25.8091 12.9755C25.7945 12.961 25.7747 12.9529 25.754 12.9529H19.0878C19.0778 12.9533 19.0678 12.9516 19.0585 12.948C19.0492 12.9444 19.0408 12.939 19.0337 12.932C19.0266 12.925 19.0211 12.9166 19.0174 12.9075C19.0138 12.8983 19.0121 12.8884 19.0125 12.8786Z" fill="white"/>
<path d="M120.016 14.8756L112.715 7.42651C112.708 7.41958 112.703 7.41132 112.699 7.4022C112.695 7.39308 112.693 7.38328 112.693 7.37339C112.693 7.3635 112.695 7.35371 112.699 7.34459C112.703 7.33547 112.708 7.3272 112.715 7.32028L119.282 0.604128C119.293 0.593727 119.3 0.580385 119.303 0.565819C119.306 0.551252 119.305 0.536132 119.299 0.522411C119.293 0.508691 119.283 0.496998 119.271 0.488843C119.258 0.480688 119.243 0.476438 119.228 0.476654H116.541C116.53 0.476654 116.52 0.478778 116.51 0.482886C116.5 0.486995 116.492 0.493001 116.484 0.500554L110.91 6.21287C110.9 6.22402 110.886 6.23172 110.87 6.235C110.855 6.23828 110.839 6.23698 110.825 6.23127C110.81 6.22555 110.798 6.21568 110.789 6.20293C110.781 6.19019 110.776 6.17515 110.776 6.15976V0.537737C110.776 0.518016 110.768 0.4991 110.754 0.485155C110.74 0.471211 110.72 0.463379 110.701 0.463379H108.586C108.566 0.463367 108.546 0.471112 108.532 0.484985C108.517 0.498859 108.509 0.517775 108.508 0.537737V14.9287C108.508 14.9492 108.516 14.9687 108.531 14.9832C108.546 14.9976 108.565 15.0057 108.586 15.0057H110.701C110.711 15.0058 110.721 15.0037 110.73 14.9998C110.739 14.9959 110.748 14.9902 110.755 14.983C110.762 14.9758 110.767 14.9673 110.771 14.958C110.775 14.9487 110.776 14.9387 110.776 14.9287V8.59499C110.776 8.58015 110.781 8.56577 110.79 8.55358C110.798 8.54139 110.81 8.53192 110.824 8.52631C110.838 8.52069 110.854 8.51917 110.868 8.52194C110.883 8.5247 110.897 8.53163 110.908 8.54188L117.221 14.9818C117.236 14.9965 117.255 15.005 117.275 15.0057H119.965C119.98 15.0048 119.994 14.9996 120.006 14.991C120.018 14.9823 120.028 14.9704 120.033 14.9567C120.038 14.9431 120.04 14.9282 120.037 14.9138C120.034 14.8994 120.027 14.8862 120.016 14.8756Z" fill="white"/>
</svg>
