<svg width="103" height="87" viewBox="0 0 103 87" fill="none" xmlns="http://www.w3.org/2000/svg">
<g opacity="0.9">
<path d="M97.1743 1.10693L57.5903 27.6176L64.9419 11.9769L97.1743 1.10693Z" fill="#E17726" stroke="#E17726" stroke-width="0.712817" stroke-linecap="round" stroke-linejoin="round"/>
<path d="M5.88672 1.10693L45.1106 27.8685L38.1192 11.977L5.88672 1.10693Z" fill="#E27625" stroke="#E27625" stroke-width="0.712817" stroke-linecap="round" stroke-linejoin="round"/>
<path d="M82.9449 62.563L72.4148 77.1294L94.947 82.7234L101.386 62.8846L82.9449 62.563Z" fill="#E27625" stroke="#E27625" stroke-width="0.712817" stroke-linecap="round" stroke-linejoin="round"/>
<path d="M1.71411 62.8846L8.11439 82.7234L30.6465 77.1294L20.1555 62.563L1.71411 62.8846Z" fill="#E27625" stroke="#E27625" stroke-width="0.712817" stroke-linecap="round" stroke-linejoin="round"/>
<path d="M29.4132 37.9503L23.1343 46.5269L45.4707 47.4245L44.7152 25.7163L29.4132 37.9503Z" fill="#E27625" stroke="#E27625" stroke-width="0.712817" stroke-linecap="round" stroke-linejoin="round"/>
<path d="M73.6479 37.9503L58.1071 25.4653L57.5903 47.4244L79.9268 46.5268L73.6479 37.9503Z" fill="#E27625" stroke="#E27625" stroke-width="0.712817" stroke-linecap="round" stroke-linejoin="round"/>
<path d="M30.6465 77.129L44.1204 71.2064L32.5137 63.0293L30.6465 77.129Z" fill="#E27625" stroke="#E27625" stroke-width="0.712817" stroke-linecap="round" stroke-linejoin="round"/>
<path d="M58.9409 71.2064L72.4149 77.129L70.5476 63.0293L58.9409 71.2064Z" fill="#E27625" stroke="#E27625" stroke-width="0.712817" stroke-linecap="round" stroke-linejoin="round"/>
<path d="M72.4149 77.1295L58.9409 71.207L60.0135 79.1367L59.8961 82.4725L72.4149 77.1295Z" fill="#D5BFB2" stroke="#D5BFB2" stroke-width="0.712817" stroke-linecap="round" stroke-linejoin="round"/>
<path d="M30.6465 77.1295L43.1652 82.4725L43.0869 79.1367L44.1204 71.207L30.6465 77.1295Z" fill="#D5BFB2" stroke="#D5BFB2" stroke-width="0.712817" stroke-linecap="round" stroke-linejoin="round"/>
<path d="M43.4039 57.7891L32.1965 54.8136L40.1039 51.5483L43.4039 57.7891Z" fill="#233447" stroke="#233447" stroke-width="0.712817" stroke-linecap="round" stroke-linejoin="round"/>
<path d="M59.6572 57.7891L62.9572 51.5483L70.9038 54.8136L59.6572 57.7891Z" fill="#233447" stroke="#233447" stroke-width="0.712817" stroke-linecap="round" stroke-linejoin="round"/>
<path d="M30.6466 77.1291L32.5921 62.563L20.1555 62.8846L30.6466 77.1291Z" fill="#CC6228" stroke="#CC6228" stroke-width="0.712817" stroke-linecap="round" stroke-linejoin="round"/>
<path d="M70.4692 62.563L72.4148 77.1291L82.9449 62.8846L70.4692 62.563Z" fill="#CC6228" stroke="#CC6228" stroke-width="0.712817" stroke-linecap="round" stroke-linejoin="round"/>
<path d="M79.9268 46.5269L57.5903 47.4245L59.6572 57.7893L62.9572 51.5485L70.9038 54.8138L79.9268 46.5269Z" fill="#CC6228" stroke="#CC6228" stroke-width="0.712817" stroke-linecap="round" stroke-linejoin="round"/>
<path d="M32.1965 54.8138L40.1038 51.5485L43.4038 57.7893L45.4707 47.4245L23.1343 46.5269L32.1965 54.8138Z" fill="#CC6228" stroke="#CC6228" stroke-width="0.712817" stroke-linecap="round" stroke-linejoin="round"/>
<path d="M23.1343 46.5269L32.5135 63.0299L32.1965 54.8137L23.1343 46.5269Z" fill="#E27525" stroke="#E27525" stroke-width="0.712817" stroke-linecap="round" stroke-linejoin="round"/>
<path d="M70.9036 54.8137L70.5474 63.0299L79.9267 46.5269L70.9036 54.8137Z" fill="#E27525" stroke="#E27525" stroke-width="0.712817" stroke-linecap="round" stroke-linejoin="round"/>
<path d="M45.4709 47.4243L43.4041 57.789L46.0268 70.023L46.5827 53.9159L45.4709 47.4243Z" fill="#E27525" stroke="#E27525" stroke-width="0.712817" stroke-linecap="round" stroke-linejoin="round"/>
<path d="M57.5902 47.4243L56.5176 53.8806L57.0343 70.023L59.6571 57.789L57.5902 47.4243Z" fill="#E27525" stroke="#E27525" stroke-width="0.712817" stroke-linecap="round" stroke-linejoin="round"/>
<path d="M59.6572 57.789L57.0344 70.0232L58.9408 71.2071L70.5475 63.0297L70.9037 54.8135L59.6572 57.789Z" fill="#F5841F" stroke="#F5841F" stroke-width="0.712817" stroke-linecap="round" stroke-linejoin="round"/>
<path d="M32.1965 54.8135L32.5136 63.0297L44.1202 71.2071L46.0266 70.0232L43.4039 57.789L32.1965 54.8135Z" fill="#F5841F" stroke="#F5841F" stroke-width="0.712817" stroke-linecap="round" stroke-linejoin="round"/>
<path d="M59.896 82.4725L60.0135 79.1366L59.0231 78.3486H44.0382L43.0869 79.1366L43.1652 82.4725L30.6465 77.1294L35.019 80.3557L43.9207 85.9179H59.1405L68.0422 80.3557L72.4148 77.1294L59.896 82.4725Z" fill="#C0AC9D" stroke="#C0AC9D" stroke-width="0.712817" stroke-linecap="round" stroke-linejoin="round"/>
<path d="M58.9409 71.2068L57.0345 70.0229H46.0268L44.1204 71.2068L43.0869 79.1366L44.0382 78.3486H59.0231L60.0135 79.1366L58.9409 71.2068Z" fill="#161616" stroke="#161616" stroke-width="0.712817" stroke-linecap="round" stroke-linejoin="round"/>
<path d="M98.842 29.342L102.181 14.705L97.1744 1.10693L58.9409 26.7235L73.6479 37.9504L94.4303 43.4419L99.0025 38.5971L97.0139 37.3072L100.193 34.6852L97.7694 32.9642L100.948 30.7768L98.842 29.342Z" fill="#763E1A" stroke="#763E1A" stroke-width="0.712817" stroke-linecap="round" stroke-linejoin="round"/>
<path d="M0.880127 14.705L4.25839 29.342L2.11322 30.7768L5.29183 32.9642L2.86872 34.6852L6.04735 37.3072L4.05875 38.5971L8.63095 43.4419L29.4133 37.9504L44.1203 26.7235L5.88685 1.10693L0.880127 14.705Z" fill="#763E1A" stroke="#763E1A" stroke-width="0.712817" stroke-linecap="round" stroke-linejoin="round"/>
<path d="M94.43 43.4422L73.6477 37.9507L79.9266 46.5273L70.5474 63.0302L82.9447 62.8853H101.386L94.43 43.4422Z" fill="#F5841F" stroke="#F5841F" stroke-width="0.712817" stroke-linecap="round" stroke-linejoin="round"/>
<path d="M29.4135 37.9507L8.63113 43.4422L1.71411 62.8853H20.1556L32.5138 63.0302L23.1345 46.5273L29.4135 37.9507Z" fill="#F5841F" stroke="#F5841F" stroke-width="0.712817" stroke-linecap="round" stroke-linejoin="round"/>
<path d="M57.5903 47.4242L58.9408 26.7231L64.9418 11.9766H38.1194L44.1204 26.7231L45.4709 47.4242L45.9876 53.9511L46.0268 70.0229H57.0344L57.0736 53.9511L57.5903 47.4242Z" fill="#F5841F" stroke="#F5841F" stroke-width="0.712817" stroke-linecap="round" stroke-linejoin="round"/>
</g>
</svg>
