<svg width="111" height="113" viewBox="0 0 111 113" fill="none" xmlns="http://www.w3.org/2000/svg">
<path fill-rule="evenodd" clip-rule="evenodd" d="M93.3662 41.6394V33.6902L55.4999 17.401L51.7878 18.9979V93.3494L55.4999 94.9463L59.2122 93.3493V60.2261H69.1309V52.8802H59.2122V27.0113L76.8965 34.5854V85.742L84.3209 82.5481V37.7653L93.3662 41.6394ZM101.104 83.4922V83.5391L55.4999 103.157L9.89612 83.5391V83.4921L9.68053 83.3994V28.9474L9.89612 28.8546V28.8082L55.4999 9.19043L101.104 28.8082V28.8546L101.319 28.9474V83.3994L101.104 83.4922ZM25.9705 30.1039L36.4786 63.2571V25.5835L43.9031 22.3897V89.9576L36.4786 86.7638V86.4201L36.0896 86.5361L25.0626 51.7458V81.8529L17.6382 78.659V33.6883L25.9705 30.1039ZM110.024 88.8917V23.4551L55.5 0L0.97583 23.4551V88.8917L55.5 112.347L110.024 88.8917Z" fill="url(#paint0_linear_632_2534)" fill-opacity="0.9"/>
<defs>
<linearGradient id="paint0_linear_632_2534" x1="55.5" y1="0" x2="55.5" y2="112.347" gradientUnits="userSpaceOnUse">
<stop stop-color="#0C0C0C"/>
<stop offset="1" stop-color="#7236DA"/>
</linearGradient>
</defs>
</svg>
