<svg width="91" height="100" viewBox="0 0 91 100" fill="none" xmlns="http://www.w3.org/2000/svg">
<path fill-rule="evenodd" clip-rule="evenodd" d="M76.7521 37.0634V29.9876L45.5002 15.4886L42.4363 16.91V83.0903L45.5002 84.5117L48.5639 83.0904V53.6073H56.75V47.0688H48.5639V24.0429L63.1589 30.7846V76.3191L69.2865 73.4763V33.615L76.7521 37.0634ZM83.138 74.3164V74.3582L45.5002 91.82L7.8623 74.3582V74.3166L7.68419 74.2339V25.7661L7.8623 25.6835V25.6421L45.5002 8.18034L83.138 25.6421V25.6836L83.3158 25.7661V74.2339L83.138 74.3164ZM21.1287 26.7955L29.8013 56.3051V22.7719L35.9288 19.9291V80.0712L29.8013 77.2284V76.9226L29.4802 77.0258L20.3793 46.0586V72.8571L14.2517 70.0143V29.986L21.1287 26.7955ZM90.5 79.1226V20.8774L45.5 0L0.5 20.8774V79.1226L45.5 100L90.5 79.1226Z" fill="#0C0C0C" fill-opacity="0.9"/>
</svg>
