<svg width="91" height="101" viewBox="0 0 91 101" fill="none" xmlns="http://www.w3.org/2000/svg">
<path fill-rule="evenodd" clip-rule="evenodd" d="M76.7521 37.5634V30.4876L45.5002 15.9886L42.4363 17.41V83.5903L45.5002 85.0117L48.5639 83.5904V54.1073H56.75V47.5688H48.5639V24.5429L63.1589 31.2846V76.8191L69.2865 73.9763V34.115L76.7521 37.5634ZM83.138 74.8164V74.8582L45.5002 92.32L7.8623 74.8582V74.8166L7.68419 74.7339V26.2661L7.8623 26.1835V26.1421L45.5002 8.68034L83.138 26.1421V26.1836L83.3158 26.2661V74.7339L83.138 74.8164ZM21.1287 27.2955L29.8013 56.8051V23.2719L35.9288 20.4291V80.5712L29.8013 77.7284V77.4226L29.4802 77.5258L20.3793 46.5586V73.3571L14.2517 70.5143V30.486L21.1287 27.2955ZM90.5 79.6226V21.3774L45.5 0.5L0.5 21.3774V79.6226L45.5 100.5L90.5 79.6226Z" fill="#0C0C0C" fill-opacity="0.9"/>
</svg>
