<svg width="121" height="72" viewBox="0 0 121 72" fill="none" xmlns="http://www.w3.org/2000/svg">
<path d="M110.244 71.3098C109.482 71.3098 108.702 71.0811 108.02 70.6311C106.186 69.3823 105.695 66.8811 106.906 65.0811C110.6 59.6173 112.531 53.1898 112.531 46.4923C112.531 39.8136 110.6 33.3673 106.906 27.8961C105.657 26.0398 106.186 23.5611 107.982 22.3498C109.857 21.1161 112.336 21.6261 113.529 23.4186C118.104 30.2586 120.504 38.2648 120.504 46.5223C120.504 54.7686 118.104 62.7936 113.529 69.6111C112.85 70.8223 111.579 71.4073 110.307 71.4073L110.244 71.3098ZM98.7987 64.8486C98.0374 64.8486 97.2574 64.6123 96.5749 64.1436C94.7412 62.9548 94.2687 60.4723 95.4987 58.6723C97.9399 55.0573 99.2299 50.9361 99.2299 46.5223C99.2299 42.2473 97.9399 38.0473 95.4987 34.3761C94.2687 32.5573 94.7374 30.0973 96.5749 28.8861C98.4312 27.6973 100.85 28.1473 102.099 30.0223C105.44 34.9611 107.217 40.7436 107.217 46.5823C107.217 52.5973 105.436 58.2823 102.099 63.1686C101.379 64.3573 100.07 64.9648 98.7987 64.9648V64.8486ZM80.1499 29.0661C78.5862 13.0911 65.0712 0.569824 48.6462 0.569824C35.0524 0.569824 22.9999 9.31857 18.6874 21.9936C8.45366 23.4973 0.503662 32.3473 0.503662 42.9898C0.503662 54.7086 10.0549 64.2598 21.8149 64.2598H76.3437C86.1687 64.2598 94.1749 56.2948 94.1749 46.4886C94.1749 37.9536 88.1787 30.8436 80.1537 29.0848L80.1499 29.0661ZM76.3399 56.3098H21.8112C14.4874 56.3098 8.47241 50.3548 8.47241 43.0086C8.47241 35.6886 14.4274 29.7298 21.8112 29.7298C25.3662 29.7298 28.7262 31.1548 31.2424 33.6336C32.7462 35.1973 35.3074 35.1973 36.8674 33.6336C38.3712 32.1336 38.3712 29.5723 36.8674 28.0086C34.0962 25.2936 30.7174 23.3436 27.0462 22.4436C30.7962 14.1223 39.1924 8.57982 48.5674 8.57982C61.6174 8.57982 72.2787 19.2261 72.2787 32.2686C72.2787 34.8298 71.8887 37.3086 71.0674 39.6898C70.4037 41.8011 71.5174 44.0436 73.6287 44.8086C73.9999 44.9436 74.4499 45.0223 74.8174 45.0223C76.4787 45.0223 78.0424 43.9686 78.5674 42.3261C79.0962 40.7398 79.4674 39.1798 79.7037 37.5223C83.3749 38.9473 85.9924 42.5436 85.9924 46.6836C85.9924 52.1473 81.5787 56.5648 76.1674 56.5648L76.3399 56.3098Z" fill="black"/>
</svg>
