<svg width="121" height="71" viewBox="0 0 121 71" fill="none" xmlns="http://www.w3.org/2000/svg">
<path d="M110.244 70.8101C109.482 70.8101 108.702 70.5813 108.02 70.1313C106.186 68.8826 105.695 66.3813 106.906 64.5813C110.6 59.1176 112.531 52.6901 112.531 45.9926C112.531 39.3138 110.6 32.8676 106.906 27.3963C105.657 25.5401 106.186 23.0613 107.982 21.8501C109.857 20.6163 112.336 21.1263 113.529 22.9188C118.104 29.7588 120.504 37.7651 120.504 46.0226C120.504 54.2688 118.104 62.2938 113.529 69.1113C112.85 70.3226 111.579 70.9076 110.307 70.9076L110.244 70.8101ZM98.7987 64.3488C98.0374 64.3488 97.2574 64.1126 96.5749 63.6438C94.7412 62.4551 94.2687 59.9726 95.4987 58.1726C97.9399 54.5576 99.2299 50.4363 99.2299 46.0226C99.2299 41.7476 97.9399 37.5476 95.4987 33.8763C94.2687 32.0576 94.7374 29.5976 96.5749 28.3863C98.4312 27.1976 100.85 27.6476 102.099 29.5226C105.44 34.4613 107.217 40.2438 107.217 46.0826C107.217 52.0976 105.436 57.7826 102.099 62.6688C101.379 63.8576 100.07 64.4651 98.7987 64.4651V64.3488ZM80.1499 28.5663C78.5862 12.5913 65.0712 0.0700684 48.6462 0.0700684C35.0524 0.0700684 22.9999 8.81882 18.6874 21.4938C8.45366 22.9976 0.503662 31.8476 0.503662 42.4901C0.503662 54.2088 10.0549 63.7601 21.8149 63.7601H76.3437C86.1687 63.7601 94.1749 55.7951 94.1749 45.9888C94.1749 37.4538 88.1787 30.3438 80.1537 28.5851L80.1499 28.5663ZM76.3399 55.8101H21.8112C14.4874 55.8101 8.47241 49.8551 8.47241 42.5088C8.47241 35.1888 14.4274 29.2301 21.8112 29.2301C25.3662 29.2301 28.7262 30.6551 31.2424 33.1338C32.7462 34.6976 35.3074 34.6976 36.8674 33.1338C38.3712 31.6338 38.3712 29.0726 36.8674 27.5088C34.0962 24.7938 30.7174 22.8438 27.0462 21.9438C30.7962 13.6226 39.1924 8.08007 48.5674 8.08007C61.6174 8.08007 72.2787 18.7263 72.2787 31.7688C72.2787 34.3301 71.8887 36.8088 71.0674 39.1901C70.4037 41.3013 71.5174 43.5438 73.6287 44.3088C73.9999 44.4438 74.4499 44.5226 74.8174 44.5226C76.4787 44.5226 78.0424 43.4688 78.5674 41.8263C79.0962 40.2401 79.4674 38.6801 79.7037 37.0226C83.3749 38.4476 85.9924 42.0438 85.9924 46.1838C85.9924 51.6476 81.5787 56.0651 76.1674 56.0651L76.3399 55.8101Z" fill="black"/>
</svg>
