<svg width="35" height="27" viewBox="0 0 35 27" fill="none" xmlns="http://www.w3.org/2000/svg">
<path d="M2.9367 4.49403C5.36421 2.02241 9.03749 0.769531 13.8527 0.769531H15.583V5.35041L14.1919 5.61203C11.8214 6.05728 10.1725 6.93316 9.29011 8.21853C8.82968 8.91099 8.56855 9.70385 8.53227 10.5195H13.8527C14.3116 10.5195 14.7517 10.6907 15.0762 10.9955C15.4007 11.3002 15.583 11.7136 15.583 12.1445V23.5195C15.583 25.3119 14.0309 26.7695 12.1225 26.7695H1.74111C1.28222 26.7695 0.842133 26.5983 0.517652 26.2936C0.193171 25.9888 0.0108794 25.5755 0.0108794 25.1445V17.0195L0.0160701 12.2762C0.000498051 12.0958 -0.328246 7.82203 2.9367 4.49403ZM31.155 26.7695H20.7736C20.3148 26.7695 19.8747 26.5983 19.5502 26.2936C19.2257 25.9888 19.0434 25.5755 19.0434 25.1445V17.0195L19.0486 12.2762C19.033 12.0958 18.7043 7.82203 21.9692 4.49403C24.3968 2.02241 28.07 0.769531 32.8853 0.769531H34.6155V5.35041L33.2244 5.61203C30.854 6.05728 29.2051 6.93316 28.3226 8.21853C27.8622 8.91099 27.6011 9.70385 27.5648 10.5195H32.8853C33.3442 10.5195 33.7842 10.6907 34.1087 10.9955C34.4332 11.3002 34.6155 11.7136 34.6155 12.1445V23.5195C34.6155 25.3119 33.0635 26.7695 31.155 26.7695Z" fill="#7236DA"/>
</svg>
